<svg width="24" height="24" viewBox="0 0 24 24" fill="none" xmlns="http://www.w3.org/2000/svg">
<path d="M10 9H10.01M16 15H16.01M17 8L9 16M8.33377 3.8187C9.1376 3.75455 9.90071 3.43846 10.5145 2.91542C11.9467 1.69486 14.0533 1.69486 15.4855 2.91542C16.0993 3.43846 16.8624 3.75455 17.6662 3.8187C19.5421 3.96839 21.0316 5.45794 21.1813 7.33377C21.2455 8.1376 21.5615 8.90071 22.0846 9.51447C23.3051 10.9467 23.3051 13.0533 22.0846 14.4855C21.5615 15.0993 21.2455 15.8624 21.1813 16.6662C21.0316 18.5421 19.5421 20.0316 17.6662 20.1813C16.8624 20.2455 16.0993 20.5615 15.4855 21.0846C14.0533 22.3051 11.9467 22.3051 10.5145 21.0846C9.90071 20.5615 9.1376 20.2455 8.33377 20.1813C6.45794 20.0316 4.96839 18.5421 4.8187 16.6662C4.75455 15.8624 4.43846 15.0993 3.91542 14.4855C2.69486 13.0533 2.69486 10.9467 3.91542 9.51447C4.43846 8.90071 4.75455 8.1376 4.8187 7.33377C4.96839 5.45794 6.45794 3.96839 8.33377 3.8187ZM10.5 9C10.5 9.27614 10.2761 9.5 10 9.5C9.72386 9.5 9.5 9.27614 9.5 9C9.5 8.72386 9.72386 8.5 10 8.5C10.2761 8.5 10.5 8.72386 10.5 9ZM16.5 15C16.5 15.2761 16.2761 15.5 16 15.5C15.7239 15.5 15.5 15.2761 15.5 15C15.5 14.7239 15.7239 14.5 16 14.5C16.2761 14.5 16.5 14.7239 16.5 15Z" stroke="#0C0F0F" stroke-width="2" stroke-linecap="round" stroke-linejoin="round"/>
</svg>
