<svg width="24" height="24" viewBox="0 0 24 24" fill="none" xmlns="http://www.w3.org/2000/svg">
<path d="M14 5C14 6.10457 11.5376 7 8.5 7C5.46243 7 3 6.10457 3 5M14 5C14 3.89543 11.5376 3 8.5 3C5.46243 3 3 3.89543 3 5M14 5V6.5M3 5V17C3 18.1046 5.46243 19 8.5 19M8.5 11C8.33145 11 8.16468 10.9972 8 10.9918C5.19675 10.9 3 10.0433 3 9M8.5 15C5.46243 15 3 14.1046 3 13M23 11.5C23 12.6046 20.5376 13.5 17.5 13.5C14.4624 13.5 12 12.6046 12 11.5M23 11.5C23 10.3954 20.5376 9.5 17.5 9.5C14.4624 9.5 12 10.3954 12 11.5M23 11.5V19C23 20.1046 20.5376 21 17.5 21C14.4624 21 12 20.1046 12 19V11.5M23 15.25C23 16.3546 20.5376 17.25 17.5 17.25C14.4624 17.25 12 16.3546 12 15.25" stroke="#0C0F0F" stroke-width="2" stroke-linecap="round" stroke-linejoin="round"/>
</svg>
