<svg width="24" height="24" viewBox="0 0 24 24" fill="none" xmlns="http://www.w3.org/2000/svg">
<path d="M3.79428 5.11809C3.79428 4.38697 4.38697 3.79428 5.11809 3.79428H9.35426C10.0854 3.79428 10.6781 4.38697 10.6781 5.11809V9.35426C10.6781 10.0854 10.0854 10.6781 9.35426 10.6781H5.11809C4.38697 10.6781 3.79428 10.0854 3.79428 9.35426V5.11809ZM13.3216 5.11809C13.3216 4.38697 13.9143 3.79428 14.6454 3.79428H18.8816C19.6127 3.79428 20.2054 4.38697 20.2054 5.11809V9.35426C20.2054 10.0854 19.6127 10.6781 18.8816 10.6781H14.6454C13.9143 10.6781 13.3216 10.0854 13.3216 9.35426V5.11809ZM13.3216 14.6454C13.3216 13.9143 13.9143 13.3216 14.6454 13.3216H18.8816C19.6127 13.3216 20.2054 13.9143 20.2054 14.6454V18.8816C20.2054 19.6127 19.6127 20.2054 18.8816 20.2054H14.6454C13.9143 20.2054 13.3216 19.6127 13.3216 18.8816V14.6454ZM3.79428 14.6454C3.79428 13.9143 4.38697 13.3216 5.11809 13.3216H9.35426C10.0854 13.3216 10.6781 13.9143 10.6781 14.6454V18.8816C10.6781 19.6127 10.0854 20.2054 9.35426 20.2054H5.11809C4.38697 20.2054 3.79428 19.6127 3.79428 18.8816V14.6454Z" stroke="#0C0F0F" stroke-width="1.58857"/>
</svg>
