<svg width="24" height="24" viewBox="0 0 24 24" fill="none" xmlns="http://www.w3.org/2000/svg">
<path d="M3 4.92857C3 3.86345 3.86345 3 4.92857 3H8.78571C9.85083 3 10.7143 3.86345 10.7143 4.92857V8.78571C10.7143 9.85083 9.85083 10.7143 8.78571 10.7143H4.92857C3.86345 10.7143 3 9.85083 3 8.78571V4.92857Z" fill="#0C0F0F"/>
<path d="M13.2857 15.3429C13.2857 14.2067 14.2067 13.2857 15.3429 13.2857H18.9429C20.079 13.2857 21 14.2067 21 15.3429V18.9429C21 20.079 20.079 21 18.9429 21H15.3429C14.2067 21 13.2857 20.079 13.2857 18.9429V15.3429Z" fill="#0C0F0F"/>
<path d="M3 15.2143C3 14.1492 3.86345 13.2857 4.92857 13.2857H8.78571C9.85083 13.2857 10.7143 14.1492 10.7143 15.2143V19.0714C10.7143 20.1365 9.85083 21 8.78571 21H4.92857C3.86345 21 3 20.1365 3 19.0714V15.2143Z" fill="#0C0F0F"/>
<path d="M14.0192 3.88413C14.3309 2.86565 15.4093 2.29272 16.4277 2.60446L20.116 3.73338C21.1345 4.04512 21.7074 5.12347 21.3956 6.14195L20.2667 9.83019C19.955 10.8487 18.8766 11.4216 17.8582 11.1099L14.1699 9.98094C13.1514 9.6692 12.5785 8.59085 12.8903 7.57237L14.0192 3.88413Z" fill="#00DDD3"/>
</svg>
