<svg width="24" height="24" viewBox="0 0 24 24" fill="none" xmlns="http://www.w3.org/2000/svg">
<path d="M3 4.92857C3 3.86345 3.86345 3 4.92857 3H8.78571C9.85083 3 10.7143 3.86345 10.7143 4.92857V8.78571C10.7143 9.85083 9.85083 10.7143 8.78571 10.7143H4.92857C3.86345 10.7143 3 9.85083 3 8.78571V4.92857Z" fill="#0C0F0F"/>
<path d="M13.2857 4.92857C13.2857 3.86345 14.1492 3 15.2143 3H19.0714C20.1365 3 21 3.86345 21 4.92857V8.78571C21 9.85083 20.1365 10.7143 19.0714 10.7143H15.2143C14.1492 10.7143 13.2857 9.85083 13.2857 8.78571V4.92857Z" fill="#0C0F0F"/>
<path d="M13.2857 15.3429C13.2857 14.2067 14.2067 13.2857 15.3429 13.2857H18.9429C20.079 13.2857 21 14.2067 21 15.3429V18.9429C21 20.079 20.079 21 18.9429 21H15.3429C14.2067 21 13.2857 20.079 13.2857 18.9429V15.3429Z" fill="#0C0F0F"/>
<path d="M3 15.2143C3 14.1492 3.86345 13.2857 4.92857 13.2857H8.78571C9.85083 13.2857 10.7143 14.1492 10.7143 15.2143V19.0714C10.7143 20.1365 9.85083 21 8.78571 21H4.92857C3.86345 21 3 20.1365 3 19.0714V15.2143Z" fill="#0C0F0F"/>
</svg>
