<svg width="32" height="32" viewBox="0 0 32 32" fill="none" xmlns="http://www.w3.org/2000/svg">
<path d="M16 4C9.37321 4 4 9.37321 4 16C4 22.6268 9.37321 28 16 28C22.6268 28 28 22.6268 28 16C28 9.37321 22.6268 4 16 4ZM15.1429 10.2143C15.1429 10.0964 15.2393 10 15.3571 10H16.6429C16.7607 10 16.8571 10.0964 16.8571 10.2143V17.5C16.8571 17.6179 16.7607 17.7143 16.6429 17.7143H15.3571C15.2393 17.7143 15.1429 17.6179 15.1429 17.5V10.2143ZM16 22C15.6636 21.9931 15.3432 21.8547 15.1077 21.6143C14.8722 21.3739 14.7403 21.0508 14.7403 20.7143C14.7403 20.3778 14.8722 20.0547 15.1077 19.8143C15.3432 19.5739 15.6636 19.4354 16 19.4286C16.3364 19.4354 16.6568 19.5739 16.8923 19.8143C17.1278 20.0547 17.2597 20.3778 17.2597 20.7143C17.2597 21.0508 17.1278 21.3739 16.8923 21.6143C16.6568 21.8547 16.3364 21.9931 16 22Z" fill="#FF801A"/>
</svg>
