<svg width="24" height="24" viewBox="0 0 24 24" fill="none" xmlns="http://www.w3.org/2000/svg">
<path d="M12 3C7.02991 3 3 7.02991 3 12C3 16.9701 7.02991 21 12 21C16.9701 21 21 16.9701 21 12C21 7.02991 16.9701 3 12 3ZM15.8873 9.06094L11.6565 14.927C11.5973 15.0095 11.5194 15.0768 11.4291 15.1232C11.3388 15.1696 11.2387 15.1938 11.1372 15.1938C11.0356 15.1938 10.9356 15.1696 10.8453 15.1232C10.7549 15.0768 10.677 15.0095 10.6179 14.927L8.11272 11.4556C8.03638 11.3491 8.11272 11.2004 8.2433 11.2004H9.18549C9.3904 11.2004 9.58527 11.2989 9.7058 11.4676L11.1362 13.4525L14.2942 9.07299C14.4147 8.90625 14.6076 8.8058 14.8145 8.8058H15.7567C15.8873 8.8058 15.9636 8.95446 15.8873 9.06094Z" fill="#00DDD3"/>
</svg>
