<svg width="24" height="24" viewBox="0 0 24 24" fill="none" xmlns="http://www.w3.org/2000/svg">
<path d="M13 22C18.5228 22 23 17.5228 23 12C23 6.47715 18.5228 2 13 2C7.47715 2 3 6.47715 3 12C3 17.5228 7.47715 22 13 22Z" stroke="#0C0F0F" stroke-width="2" stroke-linecap="round" stroke-linejoin="round"/>
<path d="M15.7221 8.26596C16.2107 8.10312 16.4549 8.02169 16.6174 8.07962C16.7587 8.13003 16.87 8.24127 16.9204 8.38263C16.9783 8.54507 16.8969 8.78935 16.734 9.27789L15.2465 13.7405C15.2001 13.8797 15.1769 13.9492 15.1374 14.007C15.1024 14.0582 15.0582 14.1024 15.007 14.1374C14.9492 14.1769 14.8797 14.2001 14.7405 14.2465L10.2779 15.734C9.78935 15.8969 9.54507 15.9783 9.38263 15.9204C9.24127 15.87 9.13003 15.7587 9.07962 15.6174C9.02169 15.4549 9.10312 15.2107 9.26596 14.7221L10.7535 10.2595C10.7999 10.1203 10.8231 10.0508 10.8626 9.99299C10.8976 9.94182 10.9418 9.8976 10.993 9.8626C11.0508 9.82308 11.1203 9.79989 11.2595 9.75351L15.7221 8.26596Z" stroke="#0C0F0F" stroke-width="2" stroke-linecap="round" stroke-linejoin="round"/>
</svg>
