<svg width="24" height="24" viewBox="0 0 24 24" fill="none" xmlns="http://www.w3.org/2000/svg">
<rect width="24" height="24" fill="white" fill-opacity="0.01"/>
<path d="M12 3C7.02991 3 3 7.02991 3 12C3 16.9701 7.02991 21 12 21C16.9701 21 21 16.9701 21 12C21 7.02991 16.9701 3 12 3ZM15.3228 15.4192L13.9969 15.4132L12 13.0326L10.0051 15.4112L8.67723 15.4172C8.58884 15.4172 8.51652 15.3469 8.51652 15.2565C8.51652 15.2183 8.53058 15.1821 8.55469 15.152L11.1683 12.0382L8.55469 8.92634C8.53041 8.8969 8.51694 8.86003 8.51652 8.82187C8.51652 8.73348 8.58884 8.66116 8.67723 8.66116L10.0051 8.66719L12 11.0478L13.9949 8.6692L15.3208 8.66317C15.4092 8.66317 15.4815 8.73348 15.4815 8.82388C15.4815 8.86205 15.4674 8.89821 15.4433 8.92835L12.8337 12.0402L15.4453 15.154C15.4694 15.1842 15.4835 15.2203 15.4835 15.2585C15.4835 15.3469 15.4112 15.4192 15.3228 15.4192Z" fill="#F74A4C"/>
</svg>
