<svg width="24" height="24" viewBox="0 0 24 24" fill="none" xmlns="http://www.w3.org/2000/svg">
<path d="M17 18L19 20L23 16M23 10H3M23 12V8.2C23 7.0799 23 6.51984 22.782 6.09202C22.5903 5.7157 22.2843 5.40974 21.908 5.21799C21.4802 5 20.9201 5 19.8 5H6.2C5.0799 5 4.51984 5 4.09202 5.21799C3.7157 5.40973 3.40973 5.71569 3.21799 6.09202C3 6.51984 3 7.0799 3 8.2V15.8C3 16.9201 3 17.4802 3.21799 17.908C3.40973 18.2843 3.71569 18.5903 4.09202 18.782C4.51984 19 5.0799 19 6.2 19H13" stroke="#0C0F0F" stroke-width="2" stroke-linecap="round" stroke-linejoin="round"/>
</svg>
