<svg width="24" height="24" viewBox="0 0 24 24" fill="none" xmlns="http://www.w3.org/2000/svg">
<g clip-path="url(#clip0_242_26)">
<path d="M12.2001 2.15039L12.2001 15.8393M12.2001 15.8393L19.0445 8.99483M12.2001 15.8393L5.35565 8.99483M22.1001 15.9004L22.1001 17.6504C22.1001 18.7705 22.1001 19.3305 21.8821 19.7584C21.6904 20.1347 21.3844 20.4407 21.0081 20.6324C20.5803 20.8504 20.0202 20.8504 18.9001 20.8504L5.5001 20.8504C4.37999 20.8504 3.81994 20.8504 3.39211 20.6324C3.01579 20.4407 2.70983 20.1347 2.51808 19.7584C2.3001 19.3305 2.3001 18.7705 2.3001 17.6504L2.3001 15.9004" stroke="#0C0F0F" stroke-width="2" stroke-linecap="round" stroke-linejoin="round"/>
</g>
<defs>
<clipPath id="clip0_242_26">
<rect width="24" height="24" fill="white" transform="translate(24) rotate(90)"/>
</clipPath>
</defs>
</svg>
