<svg width="24" height="24" viewBox="0 0 24 24" fill="none" xmlns="http://www.w3.org/2000/svg">
<path d="M12 0C5.37321 0 0 5.37321 0 12C0 18.6268 5.37321 24 12 24C18.6268 24 24 18.6268 24 12C24 5.37321 18.6268 0 12 0ZM11.1429 6.21429C11.1429 6.09643 11.2393 6 11.3571 6H12.6429C12.7607 6 12.8571 6.09643 12.8571 6.21429V13.5C12.8571 13.6179 12.7607 13.7143 12.6429 13.7143H11.3571C11.2393 13.7143 11.1429 13.6179 11.1429 13.5V6.21429ZM12 18C11.6636 17.9931 11.3432 17.8547 11.1077 17.6143C10.8722 17.3739 10.7403 17.0508 10.7403 16.7143C10.7403 16.3778 10.8722 16.0547 11.1077 15.8143C11.3432 15.5739 11.6636 15.4354 12 15.4286C12.3364 15.4354 12.6568 15.5739 12.8923 15.8143C13.1278 16.0547 13.2597 16.3778 13.2597 16.7143C13.2597 17.0508 13.1278 17.3739 12.8923 17.6143C12.6568 17.8547 12.3364 17.9931 12 18Z" fill="#FF801A"/>
</svg>
