<svg width="24" height="24" viewBox="0 0 24 24" fill="none" xmlns="http://www.w3.org/2000/svg">
<path d="M12 3C7.02991 3 3 7.02991 3 12C3 16.9701 7.02991 21 12 21C16.9701 21 21 16.9701 21 12C21 7.02991 16.9701 3 12 3ZM11.3571 7.66071C11.3571 7.57232 11.4295 7.5 11.5179 7.5H12.4821C12.5705 7.5 12.6429 7.57232 12.6429 7.66071V13.125C12.6429 13.2134 12.5705 13.2857 12.4821 13.2857H11.5179C11.4295 13.2857 11.3571 13.2134 11.3571 13.125V7.66071ZM12 16.5C11.7477 16.4948 11.5074 16.391 11.3308 16.2107C11.1541 16.0304 11.0552 15.7881 11.0552 15.5357C11.0552 15.2833 11.1541 15.041 11.3308 14.8607C11.5074 14.6804 11.7477 14.5766 12 14.5714C12.2523 14.5766 12.4926 14.6804 12.6692 14.8607C12.8459 15.041 12.9448 15.2833 12.9448 15.5357C12.9448 15.7881 12.8459 16.0304 12.6692 16.2107C12.4926 16.391 12.2523 16.4948 12 16.5Z" fill="#FF801A"/>
</svg>
