<svg width="24" height="24" viewBox="0 0 24 24" fill="none" xmlns="http://www.w3.org/2000/svg">
<path d="M8.99902 10.5L10.999 12.5L15.499 8M19.999 21V7.8C19.999 6.11984 19.999 5.27976 19.672 4.63803C19.3844 4.07354 18.9255 3.6146 18.361 3.32698C17.7193 3 16.8792 3 15.199 3H8.79902C7.11887 3 6.27879 3 5.63705 3.32698C5.07257 3.6146 4.61362 4.07354 4.326 4.63803C3.99902 5.27976 3.99902 6.11984 3.99902 7.8V21L6.74902 19L9.24902 21L11.999 19L14.749 21L17.249 19L19.999 21Z" stroke="#0C0F0F" stroke-width="2" stroke-linecap="round" stroke-linejoin="round"/>
</svg>
