<svg width="24" height="24" viewBox="0 0 24 24" fill="none" xmlns="http://www.w3.org/2000/svg">
<path d="M9 8H9.01M3 5.2L3 9.67451C3 10.1637 3 10.4083 3.05526 10.6385C3.10425 10.8425 3.18506 11.0376 3.29472 11.2166C3.4184 11.4184 3.59135 11.5914 3.93726 11.9373L11.6059 19.6059C12.7939 20.7939 13.388 21.388 14.0729 21.6105C14.6755 21.8063 15.3245 21.8063 15.927 21.6105C16.612 21.388 17.2061 20.7939 18.3941 19.6059L20.6059 17.3941C21.7939 16.2061 22.388 15.612 22.6105 14.927C22.8063 14.3245 22.8063 13.6755 22.6105 13.0729C22.388 12.388 21.7939 11.7939 20.6059 10.6059L12.9373 2.93726C12.5914 2.59135 12.4184 2.4184 12.2166 2.29472C12.0376 2.18506 11.8425 2.10425 11.6385 2.05526C11.4083 2 11.1637 2 10.6745 2L6.2 2C5.0799 2 4.51984 2 4.09202 2.21799C3.7157 2.40973 3.40973 2.71569 3.21799 3.09202C3 3.51984 3 4.07989 3 5.2ZM9.5 8C9.5 8.27614 9.27614 8.5 9 8.5C8.72386 8.5 8.5 8.27614 8.5 8C8.5 7.72386 8.72386 7.5 9 7.5C9.27614 7.5 9.5 7.72386 9.5 8Z" stroke="#0C0F0F" stroke-width="2" stroke-linecap="round" stroke-linejoin="round"/>
</svg>
