<svg width="24" height="24" viewBox="0 0 24 24" fill="none" xmlns="http://www.w3.org/2000/svg">
<rect width="24" height="24" rx="12" fill="url(#paint0_linear_37_1722)"/>
<path d="M10.0028 12.0307C10.0028 10.9252 10.8985 10.0288 12.0036 10.0288C13.1088 10.0288 14.005 10.9252 14.005 12.0307C14.005 13.1362 13.1088 14.0327 12.0036 14.0327C10.8985 14.0327 10.0028 13.1362 10.0028 12.0307ZM8.92087 12.0307C8.92087 13.7338 10.301 15.1144 12.0036 15.1144C13.7063 15.1144 15.0864 13.7338 15.0864 12.0307C15.0864 10.3276 13.7063 8.94706 12.0036 8.94706C10.301 8.94706 8.92087 10.3276 8.92087 12.0307ZM14.488 8.82479C14.488 8.96732 14.5302 9.10666 14.6093 9.2252C14.6884 9.34374 14.8009 9.43615 14.9325 9.49075C15.0641 9.54535 15.209 9.55968 15.3487 9.53193C15.4885 9.50418 15.6169 9.43559 15.7177 9.33485C15.8185 9.23411 15.8871 9.10573 15.915 8.96595C15.9429 8.82617 15.9286 8.68127 15.8742 8.54957C15.8197 8.41786 15.7274 8.30528 15.609 8.22605C15.4905 8.14681 15.3512 8.10449 15.2088 8.10444H15.2085C15.0175 8.10453 14.8343 8.18044 14.6992 8.3155C14.5642 8.45057 14.4882 8.63374 14.488 8.82479ZM9.57819 16.9189C8.99286 16.8923 8.67472 16.7947 8.4633 16.7123C8.183 16.6032 7.98301 16.4732 7.77274 16.2631C7.56247 16.0531 7.43231 15.8532 7.32367 15.5729C7.24125 15.3615 7.14376 15.0431 7.11715 14.4576C7.08804 13.8246 7.08223 13.6345 7.08223 12.0308C7.08223 10.4271 7.08852 10.2374 7.11715 9.6039C7.1438 9.0184 7.24202 8.70069 7.32367 8.48868C7.43279 8.2083 7.56276 8.00826 7.77274 7.79792C7.98272 7.58759 8.18252 7.4574 8.4633 7.34873C8.67463 7.26628 8.99286 7.16876 9.57819 7.14214C10.211 7.11303 10.4011 7.10722 12.0036 7.10722C13.6062 7.10722 13.7965 7.11351 14.4298 7.14214C15.0151 7.16881 15.3328 7.26705 15.5447 7.34873C15.825 7.4574 16.025 7.58788 16.2353 7.79792C16.4455 8.00797 16.5752 8.2083 16.6843 8.48868C16.7668 8.70007 16.8643 9.0184 16.8909 9.6039C16.92 10.2374 16.9258 10.4271 16.9258 12.0308C16.9258 13.6345 16.92 13.8241 16.8909 14.4576C16.8642 15.0431 16.7662 15.3614 16.6843 15.5729C16.5752 15.8532 16.4453 16.0533 16.2353 16.2631C16.0253 16.473 15.825 16.6032 15.5447 16.7123C15.3334 16.7948 15.0151 16.8923 14.4298 16.9189C13.797 16.948 13.6069 16.9538 12.0036 16.9538C10.4004 16.9538 10.2108 16.948 9.57819 16.9189ZM9.52848 6.06176C8.88936 6.09087 8.45264 6.19224 8.07124 6.34069C7.67625 6.494 7.34187 6.69967 7.00774 7.03337C6.6736 7.36708 6.46852 7.70208 6.31526 8.09718C6.16685 8.47893 6.06551 8.91554 6.0364 9.55484C6.00682 10.1952 6.00005 10.3999 6.00005 12.0307C6.00005 13.6616 6.00682 13.8663 6.0364 14.5066C6.06551 15.146 6.16685 15.5825 6.31526 15.9643C6.46852 16.3591 6.67365 16.6945 7.00774 17.0281C7.34183 17.3616 7.67625 17.567 8.07124 17.7208C8.45336 17.8692 8.88936 17.9706 9.52848 17.9997C10.1689 18.0288 10.3733 18.0361 12.0036 18.0361C13.634 18.0361 13.8387 18.0293 14.4788 17.9997C15.118 17.9706 15.5544 17.8692 15.9361 17.7208C16.3308 17.567 16.6654 17.3618 16.9996 17.0281C17.3337 16.6944 17.5383 16.3591 17.692 15.9643C17.8404 15.5825 17.9423 15.1459 17.9709 14.5066C18 13.8658 18.0068 13.6616 18.0068 12.0307C18.0068 10.3999 18 10.1952 17.9709 9.55484C17.9418 8.91549 17.8404 8.47869 17.692 8.09718C17.5383 7.70232 17.3332 7.36761 16.9996 7.03337C16.6659 6.69914 16.3308 6.494 15.9365 6.34069C15.5544 6.19224 15.1179 6.09039 14.4793 6.06176C13.8392 6.03265 13.6345 6.02539 12.0041 6.02539C10.3737 6.02539 10.1689 6.03216 9.52848 6.06176Z" fill="white"/>
<defs>
<linearGradient id="paint0_linear_37_1722" x1="23.5387" y1="24" x2="-0.461279" y2="-6.46012e-07" gradientUnits="userSpaceOnUse">
<stop stop-color="#FBE18A"/>
<stop offset="0.21" stop-color="#FCBB45"/>
<stop offset="0.38" stop-color="#F75274"/>
<stop offset="0.52" stop-color="#D53692"/>
<stop offset="0.74" stop-color="#8F39CE"/>
<stop offset="1" stop-color="#5B4FE9"/>
</linearGradient>
</defs>
</svg>
