<svg width="24" height="24" viewBox="0 0 24 24" fill="none" xmlns="http://www.w3.org/2000/svg">
<rect width="24" height="24" rx="12" fill="url(#paint0_linear_20_236)"/>
<path d="M10.0028 12.0307C10.0028 10.9252 10.8985 10.0288 12.0037 10.0288C13.1089 10.0288 14.005 10.9252 14.005 12.0307C14.005 13.1362 13.1089 14.0327 12.0037 14.0327C10.8985 14.0327 10.0028 13.1362 10.0028 12.0307ZM8.92088 12.0307C8.92088 13.7338 10.301 15.1144 12.0037 15.1144C13.7063 15.1144 15.0864 13.7338 15.0864 12.0307C15.0864 10.3276 13.7063 8.94706 12.0037 8.94706C10.301 8.94706 8.92088 10.3276 8.92088 12.0307ZM14.488 8.82479C14.488 8.96732 14.5302 9.10666 14.6093 9.2252C14.6884 9.34374 14.8009 9.43615 14.9325 9.49075C15.0641 9.54535 15.209 9.55968 15.3487 9.53193C15.4885 9.50418 15.6169 9.43559 15.7177 9.33485C15.8185 9.23411 15.8872 9.10573 15.915 8.96595C15.9429 8.82617 15.9287 8.68127 15.8742 8.54957C15.8197 8.41786 15.7274 8.30528 15.609 8.22605C15.4905 8.14681 15.3513 8.10449 15.2088 8.10444H15.2085C15.0175 8.10453 14.8343 8.18044 14.6993 8.3155C14.5642 8.45057 14.4882 8.63374 14.488 8.82479ZM9.57821 16.9189C8.99288 16.8923 8.67474 16.7947 8.46331 16.7123C8.18302 16.6032 7.98303 16.4732 7.77276 16.2631C7.56249 16.0531 7.43233 15.8532 7.32369 15.5729C7.24127 15.3615 7.14377 15.0431 7.11716 14.4576C7.08806 13.8246 7.08225 13.6345 7.08225 12.0308C7.08225 10.4271 7.08854 10.2374 7.11716 9.6039C7.14382 9.0184 7.24204 8.70069 7.32369 8.48868C7.43281 8.2083 7.56277 8.00826 7.77276 7.79792C7.98274 7.58759 8.18254 7.4574 8.46331 7.34873C8.67464 7.26628 8.99288 7.16876 9.57821 7.14214C10.211 7.11303 10.4011 7.10722 12.0037 7.10722C13.6062 7.10722 13.7965 7.11351 14.4298 7.14214C15.0152 7.16881 15.3328 7.26705 15.5447 7.34873C15.825 7.4574 16.025 7.58788 16.2353 7.79792C16.4456 8.00797 16.5752 8.2083 16.6844 8.48868C16.7668 8.70007 16.8643 9.0184 16.8909 9.6039C16.92 10.2374 16.9258 10.4271 16.9258 12.0308C16.9258 13.6345 16.92 13.8241 16.8909 14.4576C16.8642 15.0431 16.7662 15.3614 16.6844 15.5729C16.5752 15.8532 16.4453 16.0533 16.2353 16.2631C16.0253 16.473 15.825 16.6032 15.5447 16.7123C15.3334 16.7948 15.0152 16.8923 14.4298 16.9189C13.797 16.948 13.6069 16.9538 12.0037 16.9538C10.4004 16.9538 10.2108 16.948 9.57821 16.9189ZM9.5285 6.06176C8.88938 6.09087 8.45265 6.19224 8.07126 6.34069C7.67627 6.494 7.34189 6.69967 7.00775 7.03337C6.67362 7.36708 6.46853 7.70208 6.31527 8.09718C6.16687 8.47893 6.06552 8.91554 6.03642 9.55484C6.00683 10.1952 6.00006 10.3999 6.00006 12.0307C6.00006 13.6616 6.00683 13.8663 6.03642 14.5066C6.06552 15.146 6.16687 15.5825 6.31527 15.9643C6.46853 16.3591 6.67366 16.6945 7.00775 17.0281C7.34184 17.3616 7.67627 17.567 8.07126 17.7208C8.45337 17.8692 8.88938 17.9706 9.5285 17.9997C10.169 18.0288 10.3733 18.0361 12.0037 18.0361C13.634 18.0361 13.8387 18.0293 14.4788 17.9997C15.118 17.9706 15.5544 17.8692 15.9361 17.7208C16.3308 17.567 16.6654 17.3618 16.9996 17.0281C17.3337 16.6944 17.5384 16.3591 17.692 15.9643C17.8405 15.5825 17.9423 15.1459 17.9709 14.5066C18 13.8658 18.0068 13.6616 18.0068 12.0307C18.0068 10.3999 18 10.1952 17.9709 9.55484C17.9418 8.91549 17.8405 8.47869 17.692 8.09718C17.5384 7.70232 17.3332 7.36761 16.9996 7.03337C16.666 6.69914 16.3308 6.494 15.9365 6.34069C15.5544 6.19224 15.1179 6.09039 14.4793 6.06176C13.8392 6.03265 13.6345 6.02539 12.0041 6.02539C10.3738 6.02539 10.169 6.03216 9.5285 6.06176Z" fill="white"/>
<defs>
<linearGradient id="paint0_linear_20_236" x1="23.5387" y1="24" x2="-0.461279" y2="-6.46012e-07" gradientUnits="userSpaceOnUse">
<stop stop-color="#FBE18A"/>
<stop offset="0.21" stop-color="#FCBB45"/>
<stop offset="0.38" stop-color="#F75274"/>
<stop offset="0.52" stop-color="#D53692"/>
<stop offset="0.74" stop-color="#8F39CE"/>
<stop offset="1" stop-color="#5B4FE9"/>
</linearGradient>
</defs>
</svg>
