<svg width="24" height="24" viewBox="0 0 24 24" fill="none" xmlns="http://www.w3.org/2000/svg">
<rect width="24" height="24" rx="12" fill="#0C0F0F"/>
<path d="M9.23788 16.8622V10.3791H7.08491V16.8622H9.2381H9.23788ZM8.16184 9.49412C8.91247 9.49412 9.37979 8.99629 9.37979 8.37415C9.36574 7.73784 8.91247 7.25391 8.17612 7.25391C7.43926 7.25391 6.95801 7.73784 6.95801 8.3741C6.95801 8.99624 7.42515 9.49406 8.14774 9.49406H8.16167L8.16184 9.49412ZM10.4296 16.8622H12.5824V13.2422C12.5824 13.0486 12.5964 12.8546 12.6533 12.7164C12.8089 12.3291 13.1631 11.9282 13.758 11.9282C14.5368 11.9282 14.8486 12.5227 14.8486 13.3943V16.8622H17.0013V13.145C17.0013 11.1538 15.9393 10.2271 14.5229 10.2271C13.3616 10.2271 12.8516 10.8768 12.5682 11.3193H12.5825V10.3793H10.4297C10.4578 10.9875 10.4295 16.8624 10.4295 16.8624L10.4296 16.8622Z" fill="white"/>
</svg>
