<svg width="24" height="24" viewBox="0 0 24 24" fill="none" xmlns="http://www.w3.org/2000/svg">
<rect width="24" height="24" rx="12" fill="#0C0F0F"/>
<path d="M12.863 12.3219C12.863 14.3767 11.1693 16.0452 9.07115 16.0452C6.97299 16.0452 5.2793 14.3767 5.2793 12.3219C5.2793 10.2671 6.97299 8.59863 9.07115 8.59863C11.1693 8.59863 12.863 10.2671 12.863 12.3219ZM17.0172 12.3219C17.0172 14.2535 16.1661 15.8233 15.1213 15.8233C14.0764 15.8233 13.2253 14.2535 13.2253 12.3219C13.2253 10.3904 14.0764 8.82055 15.1213 8.82055C16.1661 8.82055 17.0172 10.3822 17.0172 12.3219ZM18.7193 12.3219C18.7193 14.0562 18.4244 15.4617 18.0536 15.4617C17.6829 15.4617 17.3879 14.0562 17.3879 12.3219C17.3879 10.5877 17.6829 9.1822 18.0536 9.1822C18.4244 9.1822 18.7193 10.5877 18.7193 12.3219Z" fill="white"/>
</svg>
