<svg width="24" height="24" viewBox="0 0 24 24" fill="none" xmlns="http://www.w3.org/2000/svg">
<path d="M2.5 4C2.5 3.17157 3.17157 2.5 4 2.5H20C20.8284 2.5 21.5 3.17157 21.5 4V20C21.5 20.8284 20.8284 21.5 20 21.5H4C3.17157 21.5 2.5 20.8284 2.5 20V4Z" fill="white" stroke="#9DA0A0"/>
<path fill-rule="evenodd" clip-rule="evenodd" d="M20 3H4C3.44772 3 3 3.44772 3 4V20C3 20.5523 3.44772 21 4 21H20C20.5523 21 21 20.5523 21 20V4C21 3.44772 20.5523 3 20 3ZM4 2C2.89543 2 2 2.89543 2 4V20C2 21.1046 2.89543 22 4 22H20C21.1046 22 22 21.1046 22 20V4C22 2.89543 21.1046 2 20 2H4Z" fill="#9DA0A0"/>
<path fill-rule="evenodd" clip-rule="evenodd" d="M7 12C7 11.4477 7.44772 11 8 11H16C16.5523 11 17 11.4477 17 12C17 12.5523 16.5523 13 16 13H8C7.44772 13 7 12.5523 7 12Z" fill="#9DA0A0"/>
</svg>
