<svg width="24" height="24" viewBox="0 0 24 24" fill="none" xmlns="http://www.w3.org/2000/svg">
<path d="M14 3.5V6.2C14 7.88016 14 8.72024 14.327 9.36197C14.6146 9.92646 15.0735 10.3854 15.638 10.673C16.2798 11 17.1198 11 18.8 11H21.5M22 12.9882V16.2C22 17.8802 22 18.7202 21.673 19.362C21.3854 19.9265 20.9265 20.3854 20.362 20.673C19.7202 21 18.8802 21 17.2 21H8.8C7.11984 21 6.27976 21 5.63803 20.673C5.07354 20.3854 4.6146 19.9265 4.32698 19.362C4 18.7202 4 17.8802 4 16.2V7.8C4 6.11984 4 5.27976 4.32698 4.63803C4.6146 4.07354 5.07354 3.6146 5.63803 3.32698C6.27976 3 7.11984 3 8.8 3H12.0118C12.7455 3 13.1124 3 13.4577 3.08289C13.7638 3.15638 14.0564 3.27759 14.3249 3.44208C14.6276 3.6276 14.887 3.88703 15.4059 4.40589L20.5941 9.59411C21.113 10.113 21.3724 10.3724 21.5579 10.6751C21.7224 10.9436 21.8436 11.2362 21.9171 11.5423C22 11.8876 22 12.2545 22 12.9882Z" stroke="#0C0F0F" stroke-width="2" stroke-linecap="round" stroke-linejoin="round"/>
</svg>
