<svg width="24" height="24" viewBox="0 0 24 24" fill="none" xmlns="http://www.w3.org/2000/svg">
<rect width="24" height="24" rx="12" fill="#FF4500"/>
<path d="M17.9999 12.1109C18.0017 12.2332 17.9863 12.3553 17.9539 12.4734C17.9215 12.5915 17.8724 12.7046 17.808 12.8091C17.7438 12.9136 17.665 13.0087 17.574 13.0915C17.483 13.1743 17.3807 13.244 17.2702 13.2984C17.2726 13.331 17.2747 13.3638 17.2758 13.3966C17.2785 13.4621 17.2785 13.5276 17.2758 13.5931C17.2747 13.6259 17.2726 13.6587 17.2702 13.6913C17.2702 15.6914 14.9189 17.3165 12.0182 17.3165C9.11744 17.3165 6.76621 15.6914 6.76621 13.6913C6.76373 13.6587 6.76171 13.6259 6.76058 13.5931C6.75787 13.5276 6.75787 13.4621 6.76058 13.3966C6.76171 13.3638 6.76373 13.331 6.76621 13.2984C6.59297 13.2195 6.4391 13.1042 6.31524 12.9605C6.19139 12.8168 6.10052 12.6482 6.04891 12.4662C5.99739 12.2842 5.98641 12.0933 6.01674 11.9067C6.04708 11.72 6.11799 11.5422 6.22457 11.3854C6.33106 11.2286 6.47068 11.0967 6.63375 10.9988C6.79681 10.9009 6.97942 10.8394 7.16889 10.8184C7.35839 10.7973 7.55024 10.8174 7.73115 10.8771C7.91206 10.9369 8.0777 11.0349 8.21659 11.1644C8.47442 10.9912 8.74455 10.8367 9.02488 10.7021C9.30527 10.5677 9.59512 10.4534 9.89217 10.3606C10.1892 10.2677 10.4928 10.1965 10.8002 10.1472C11.1077 10.0978 11.4184 10.0708 11.7299 10.0661L12.3965 6.96777C12.404 6.93184 12.4186 6.89791 12.4396 6.86755C12.4603 6.83741 12.4871 6.81152 12.5179 6.79165C12.549 6.77178 12.5837 6.75817 12.6202 6.75147C12.6564 6.745 12.6938 6.74567 12.7299 6.75348L14.937 7.191C15.1597 6.81174 15.6272 6.64923 16.0401 6.80728C16.4529 6.96532 16.6889 7.39726 16.5966 7.8263C16.5044 8.25533 16.1112 8.55445 15.6693 8.53191C15.2273 8.50936 14.8671 8.17185 14.8198 7.73567L12.892 7.33386L12.3065 10.1197C12.6141 10.1262 12.9211 10.1547 13.2247 10.205C13.8326 10.3054 14.4227 10.4923 14.9768 10.7599C15.2536 10.8934 15.5202 11.0465 15.7747 11.218C15.9578 11.0438 16.1877 10.9259 16.4369 10.8784C16.686 10.8308 16.9438 10.8557 17.179 10.9501C17.4142 11.0444 17.6168 11.2042 17.7625 11.4102C17.9082 11.6161 17.9906 11.8595 17.9999 12.1109ZM9.05979 13.3455C9.10528 13.4538 9.17149 13.5522 9.25527 13.635C9.33882 13.7181 9.43814 13.7837 9.54737 13.8288C9.6567 13.8736 9.77386 13.8967 9.89217 13.8967C10.2566 13.8967 10.5849 13.679 10.7246 13.3455C10.864 13.0118 10.7867 12.6279 10.5291 12.3725C10.2714 12.1171 9.88407 12.0405 9.54737 12.1787C9.2109 12.3171 8.99132 12.6426 8.99132 13.0038C8.99132 13.121 9.01452 13.237 9.05979 13.3455ZM14.2194 15.4889C14.2656 15.4443 14.2919 15.3833 14.2928 15.3195C14.2937 15.2554 14.2687 15.1938 14.2237 15.1481C14.1787 15.1023 14.1172 15.0762 14.0528 15.0753C13.9881 15.0744 13.926 15.0992 13.8739 15.1378C13.7385 15.2341 13.595 15.3188 13.4451 15.3911C13.2952 15.4635 13.1394 15.5231 12.9794 15.5695C12.8195 15.6157 12.6558 15.6485 12.4902 15.6675C12.3245 15.6865 12.1576 15.6914 11.9912 15.6825C11.825 15.6898 11.6583 15.6831 11.4932 15.6626C11.3281 15.6423 11.165 15.6079 11.0059 15.5599C10.8464 15.5121 10.6917 15.451 10.5428 15.3773C10.394 15.3036 10.2516 15.2175 10.1174 15.1199C10.0708 15.082 10.0115 15.0626 9.95118 15.0655C9.89082 15.0684 9.83384 15.0936 9.79105 15.1358C9.74849 15.1782 9.72304 15.2347 9.72011 15.2945C9.71718 15.3543 9.73678 15.413 9.77506 15.4592C9.93339 15.5775 10.1016 15.682 10.278 15.7717C10.4543 15.8615 10.6383 15.9358 10.8275 15.9943C11.0167 16.0528 11.2106 16.095 11.4072 16.1206C11.6038 16.1461 11.8022 16.1548 12.0002 16.1468C12.1981 16.1548 12.3965 16.1461 12.5932 16.1206C12.9869 16.0693 13.3689 15.9513 13.7224 15.7717C13.8987 15.682 14.067 15.5775 14.2253 15.4592L14.2194 15.4889ZM14.0541 13.9681C14.1762 13.9694 14.2973 13.946 14.4102 13.8996C14.523 13.8529 14.625 13.7842 14.7102 13.6973C14.7953 13.6105 14.8615 13.5074 14.9052 13.3942C14.9489 13.2811 14.9689 13.1604 14.964 13.0395C14.964 12.6783 14.7444 12.3528 14.4079 12.2144C14.0712 12.0763 13.6839 12.1528 13.4262 12.4082C13.1686 12.6636 13.0913 13.0475 13.2307 13.3812C13.3704 13.7147 13.6987 13.9324 14.0631 13.9324L14.0541 13.9681Z" fill="white"/>
</svg>
