<svg width="24" height="24" viewBox="0 0 24 24" fill="none" xmlns="http://www.w3.org/2000/svg">
<g clip-path="url(#clip0_68_57)">
<path fill-rule="evenodd" clip-rule="evenodd" d="M3.59988 3.05176e-05H20.3999C22.3881 3.05176e-05 23.9999 1.61181 23.9999 3.60003V20.4C23.9999 22.3883 22.3881 24 20.3999 24H3.59988C1.61165 24 -0.00012207 22.3883 -0.00012207 20.4V3.60003C-0.00012207 1.61181 1.61165 3.05176e-05 3.59988 3.05176e-05ZM4.79988 2.40003C4.13714 2.40003 3.59988 2.93729 3.59988 3.60003V20.4C3.59988 21.0628 4.13714 21.6 4.79988 21.6H8.39988C9.06262 21.6 9.59988 21.0628 9.59988 20.4V3.60003C9.59988 2.93729 9.06262 2.40003 8.39988 2.40003H4.79988Z" fill="#9DA0A0"/>
</g>
<defs>
<clipPath id="clip0_68_57">
<rect width="24" height="24" fill="white"/>
</clipPath>
</defs>
</svg>
