<svg width="24" height="24" viewBox="0 0 24 24" fill="none" xmlns="http://www.w3.org/2000/svg">
<rect width="24" height="24" rx="12" fill="white"/>
<path d="M12.0578 6.0293C15.6769 6.0293 18.6108 8.31596 18.6108 11.1375C18.6108 13.9584 15.6769 16.245 12.0578 16.245C11.6975 16.2452 11.3375 16.2223 10.98 16.1764L8.22904 17.9756C7.91637 18.141 7.8059 18.1229 7.93447 17.7179L8.49116 15.4225C6.69378 14.5113 5.50488 12.9324 5.50488 11.1375C5.50488 8.31659 8.43873 6.0293 12.0578 6.0293ZM15.7443 11.0595L16.6617 10.1708C16.7147 10.1158 16.7442 10.0424 16.7441 9.96609C16.744 9.88977 16.7143 9.81646 16.6613 9.76161C16.6082 9.70676 16.5359 9.67465 16.4596 9.67204C16.3833 9.66944 16.309 9.69653 16.2523 9.74763L15.0491 10.9122V9.94983C15.0491 9.87171 15.0181 9.79678 14.9628 9.74154C14.9076 9.6863 14.8327 9.65526 14.7545 9.65526C14.6764 9.65526 14.6015 9.6863 14.5462 9.74154C14.491 9.79678 14.46 9.87171 14.46 9.94983V11.5456C14.4489 11.5912 14.4489 11.6387 14.46 11.6842V12.5822C14.46 12.6604 14.491 12.7353 14.5462 12.7905C14.6015 12.8458 14.6764 12.8768 14.7545 12.8768C14.8327 12.8768 14.9076 12.8458 14.9628 12.7905C15.0181 12.7353 15.0491 12.6604 15.0491 12.5822V11.7316L15.3156 11.4739L16.2068 12.7426C16.229 12.7743 16.2573 12.8013 16.29 12.822C16.3227 12.8428 16.3591 12.8569 16.3972 12.8636C16.4354 12.8702 16.4745 12.8693 16.5122 12.8609C16.55 12.8525 16.5858 12.8367 16.6174 12.8144C16.6491 12.7922 16.6761 12.7639 16.6968 12.7312C16.7176 12.6985 16.7317 12.6621 16.7384 12.6239C16.745 12.5858 16.7441 12.5467 16.7357 12.509C16.7273 12.4712 16.7115 12.4354 16.6892 12.4038L15.7443 11.0588V11.0595ZM13.8983 12.2602H12.9871V9.95919C12.9836 9.8835 12.9511 9.81205 12.8963 9.75972C12.8415 9.70738 12.7686 9.67818 12.6928 9.67818C12.6171 9.67818 12.5442 9.70738 12.4894 9.75972C12.4346 9.81205 12.4021 9.8835 12.3986 9.95919V12.5548C12.3986 12.7171 12.5296 12.8494 12.6925 12.8494H13.8983C13.9764 12.8494 14.0513 12.8183 14.1066 12.7631C14.1618 12.7078 14.1928 12.6329 14.1928 12.5548C14.1928 12.4767 14.1618 12.4017 14.1066 12.3465C14.0513 12.2913 13.9764 12.2602 13.8983 12.2602ZM10.243 11.5787L10.6773 10.5134L11.0755 11.5787H10.243ZM11.8176 11.8833L11.8188 11.8733C11.8187 11.7991 11.7903 11.7277 11.7395 11.6736L11.0867 9.92612C11.0594 9.84284 11.0073 9.7699 10.9373 9.71704C10.8674 9.66418 10.783 9.63392 10.6954 9.6303C10.6072 9.62991 10.521 9.6564 10.4482 9.70623C10.3754 9.75606 10.3195 9.82688 10.2879 9.90927L9.2513 12.4524C9.23667 12.4883 9.22924 12.5266 9.22943 12.5653C9.22962 12.604 9.23743 12.6422 9.25241 12.6779C9.26739 12.7136 9.28925 12.746 9.31674 12.7732C9.34423 12.8004 9.37681 12.8219 9.41263 12.8366C9.44844 12.8512 9.48679 12.8586 9.52547 12.8584C9.56416 12.8582 9.60243 12.8504 9.6381 12.8355C9.67377 12.8205 9.70614 12.7986 9.73336 12.7711C9.76058 12.7436 9.78212 12.7111 9.79675 12.6752L10.0027 12.1679H11.2946L11.4812 12.6671C11.4939 12.7044 11.5139 12.7388 11.5401 12.7683C11.5663 12.7977 11.5982 12.8216 11.6338 12.8385C11.6694 12.8554 11.7081 12.8649 11.7475 12.8666C11.7868 12.8683 11.8262 12.8621 11.8631 12.8483C11.9 12.8345 11.9338 12.8134 11.9624 12.7864C11.9911 12.7593 12.014 12.7267 12.0298 12.6906C12.0457 12.6545 12.0541 12.6156 12.0546 12.5762C12.0551 12.5368 12.0477 12.4977 12.0329 12.4612L11.8176 11.8833ZM9.74433 9.96232C9.74433 9.8843 9.71338 9.80947 9.65827 9.75424C9.60316 9.69902 9.5284 9.66791 9.45038 9.66774H7.42521C7.34708 9.66774 7.27216 9.69878 7.21692 9.75402C7.16167 9.80926 7.13064 9.88419 7.13064 9.96232C7.13064 10.0404 7.16167 10.1154 7.21692 10.1706C7.27216 10.2259 7.34708 10.2569 7.42521 10.2569H8.14915V12.5885C8.14915 12.6666 8.18019 12.7415 8.23543 12.7968C8.29067 12.852 8.3656 12.8831 8.44373 12.8831C8.52185 12.8831 8.59678 12.852 8.65202 12.7968C8.70726 12.7415 8.7383 12.6666 8.7383 12.5885V10.2569H9.44976C9.61265 10.2569 9.74433 10.1246 9.74433 9.96232Z" fill="black"/>
</svg>
