<svg width="24" height="24" viewBox="0 0 24 24" fill="none" xmlns="http://www.w3.org/2000/svg">
<rect width="24" height="24" rx="12" fill="white"/>
<path d="M6.67684 11.5741C6.67684 11.5741 11.5596 9.51755 13.253 8.79339C13.9021 8.50376 16.1036 7.57684 16.1036 7.57684C16.1036 7.57684 17.1197 7.17135 17.035 8.15615C17.0067 8.56168 16.781 9.98096 16.5552 11.5161C16.2165 13.6886 15.8496 16.0637 15.8496 16.0637C15.8496 16.0637 15.7931 16.7299 15.3133 16.8458C14.8335 16.9616 14.0432 16.4403 13.9022 16.3244C13.7892 16.2375 11.7854 14.9341 11.0515 14.2968C10.854 14.123 10.6282 13.7755 11.0797 13.3699C12.0958 12.4141 13.3094 11.2265 14.0432 10.4734C14.3819 10.1258 14.7206 9.31478 13.3094 10.2996C11.3056 11.7189 9.32988 13.0513 9.32988 13.0513C9.32988 13.0513 8.87829 13.341 8.03159 13.0803C7.18484 12.8196 6.19701 12.472 6.19701 12.472C6.19701 12.472 5.51968 12.0375 6.67684 11.5741Z" fill="#34AADF"/>
</svg>
