<svg width="24" height="24" viewBox="0 0 24 24" fill="none" xmlns="http://www.w3.org/2000/svg">
<path d="M23 10H3M12 19L19.8 19C20.9201 19 21.4802 19 21.908 18.782C22.2843 18.5903 22.5903 18.2843 22.782 17.908C23 17.4802 23 16.9201 23 15.8V8.2C23 7.0799 23 6.51984 22.782 6.09202C22.5903 5.7157 22.2843 5.40974 21.908 5.21799C21.4802 5 20.9201 5 19.8 5H18M12 19L14 21M12 19L14 17M8 19H6.2C5.07989 19 4.51984 19 4.09202 18.782C3.71569 18.5903 3.40973 18.2843 3.21799 17.908C3 17.4802 3 16.9201 3 15.8V8.2C3 7.0799 3 6.51984 3.21799 6.09202C3.40973 5.71569 3.7157 5.40973 4.09202 5.21799C4.51984 5 5.0799 5 6.2 5H14M14 5L12 7M14 5L12 3" stroke="#0C0F0F" stroke-width="2" stroke-linecap="round" stroke-linejoin="round"/>
</svg>
