<svg width="24" height="24" viewBox="0 0 24 24" fill="none" xmlns="http://www.w3.org/2000/svg">
<path d="M22 21H5.6C5.03995 21 4.75992 21 4.54601 20.891C4.35785 20.7951 4.20487 20.6422 4.10899 20.454C4 20.2401 4 19.9601 4 19.4V3M21 8L17.0811 12.1827C16.9326 12.3412 16.8584 12.4204 16.7688 12.4614C16.6897 12.4976 16.6026 12.5125 16.516 12.5047C16.4179 12.4958 16.3215 12.4458 16.1287 12.3457L12.8713 10.6543C12.6785 10.5542 12.5821 10.5042 12.484 10.4953C12.3974 10.4875 12.3103 10.5024 12.2312 10.5386C12.1416 10.5796 12.0674 10.6588 11.9189 10.8173L8 15" stroke="#0C0F0F" stroke-width="2" stroke-linecap="round" stroke-linejoin="round"/>
</svg>
