<svg width="24" height="24" viewBox="0 0 24 24" fill="none" xmlns="http://www.w3.org/2000/svg">
<path d="M3 19.1511C5.97936 18.652 8.95872 19.3896 11.9381 21.3588C11.9748 21.383 12.0228 21.3812 12.057 21.3537C13.8986 19.8743 17.0412 18.6564 21 19.1511" stroke="#0C0F0F" stroke-width="2" stroke-linecap="round"/>
<path d="M11.5939 5.41381L12 5.59432L12.4061 5.41381L13.0816 5.11359C15.4754 4.04971 18.0657 3.5 20.6852 3.5C20.8591 3.5 21 3.64093 21 3.81478V15.2008C21 15.366 20.866 15.5 20.7008 15.5C18.0022 15.5 15.3302 16.0331 12.8382 17.0688L11.9928 17.4201L10.82 16.951C8.42373 15.9925 5.8666 15.5 3.28576 15.5C3.12794 15.5 3 15.3721 3 15.2142V3.81478C3 3.64093 3.14093 3.5 3.31478 3.5C5.93428 3.5 8.52463 4.04971 10.9184 5.11359L11.5939 5.41381Z" stroke="#0C0F0F" stroke-width="2"/>
</svg>
