<svg width="24" height="24" viewBox="0 0 24 24" fill="none" xmlns="http://www.w3.org/2000/svg">
<rect width="24" height="24" rx="12" fill="#0C0F0F"/>
<path d="M17.9558 8.20149C17.5596 8.37218 17.143 8.49105 16.7163 8.55514C16.9158 8.52091 17.2093 8.16156 17.3261 8.01611C17.5036 7.79671 17.6389 7.54624 17.725 7.27744C17.725 7.25748 17.745 7.22896 17.725 7.2147C17.715 7.2092 17.7037 7.20633 17.6923 7.20633C17.6808 7.20633 17.6695 7.2092 17.6595 7.2147C17.1962 7.46579 16.7032 7.65744 16.192 7.7851C16.1742 7.79054 16.1552 7.79103 16.1372 7.78651C16.1191 7.78199 16.1026 7.77263 16.0894 7.75943C16.0496 7.71201 16.0068 7.66723 15.9612 7.62538C15.7527 7.43842 15.5162 7.2854 15.2602 7.17192C14.9147 7.03005 14.5416 6.96861 14.1689 6.99224C13.8073 7.0151 13.4542 7.11218 13.1317 7.27744C12.8141 7.45167 12.5349 7.68838 12.311 7.97333C12.0755 8.26661 11.9055 8.60698 11.8124 8.97153C11.7356 9.31829 11.7269 9.67668 11.7867 10.0268C11.7867 10.0867 11.7867 10.0952 11.7354 10.0867C9.70377 9.7872 8.03683 9.06565 6.67478 7.51701C6.61494 7.44856 6.5836 7.44856 6.53516 7.51701C5.94247 8.41824 6.23026 9.84424 6.97113 10.5487C7.07086 10.6428 7.17344 10.7341 7.28172 10.8196C6.94204 10.7955 6.61065 10.7034 6.3072 10.5487C6.25021 10.5116 6.21886 10.5316 6.21602 10.6C6.20794 10.6949 6.20794 10.7903 6.21602 10.8852C6.27547 11.34 6.45454 11.7708 6.7349 12.1336C7.01527 12.4964 7.38688 12.7782 7.81172 12.9501C7.91529 12.9945 8.0232 13.0279 8.13371 13.0499C7.81925 13.1119 7.49673 13.1215 7.17914 13.0784C7.11075 13.0642 7.0851 13.1012 7.11075 13.1668C7.52962 14.3076 8.4386 14.6556 9.10538 14.8495C9.19656 14.8638 9.28775 14.8638 9.39033 14.8866C9.39033 14.8866 9.39033 14.8866 9.37323 14.9037C9.17662 15.2631 8.38161 15.5055 8.01688 15.631C7.35115 15.8703 6.64136 15.9618 5.93677 15.899C5.82564 15.8819 5.79999 15.8848 5.7715 15.899C5.743 15.9133 5.7715 15.9447 5.80284 15.9732C5.94532 16.0673 6.08779 16.15 6.23596 16.2299C6.67707 16.4707 7.14342 16.662 7.6265 16.8003C10.1283 17.4905 12.9436 16.9828 14.8214 15.1147C16.2974 13.6488 16.816 11.6267 16.816 9.60182C16.816 9.52482 16.9101 9.47919 16.9642 9.43926C17.3376 9.14804 17.6669 8.80411 17.9416 8.41824C17.9892 8.36072 18.0136 8.28749 18.01 8.2129C18.01 8.17012 18.01 8.17867 17.9558 8.20149Z" fill="white"/>
</svg>
