<svg width="24" height="24" viewBox="0 0 24 24" fill="none" xmlns="http://www.w3.org/2000/svg">
<path d="M0 3C0 1.34315 1.34315 0 3 0H21C22.6569 0 24 1.34315 24 3V21C24 22.6569 22.6569 24 21 24H3C1.34315 24 0 22.6569 0 21V3Z" fill="white"/>
<path d="M3 1.5H21V-1.5H3V1.5ZM22.5 3V21H25.5V3H22.5ZM21 22.5H3V25.5H21V22.5ZM1.5 21V3H-1.5V21H1.5ZM3 22.5C2.17157 22.5 1.5 21.8284 1.5 21H-1.5C-1.5 23.4853 0.514719 25.5 3 25.5V22.5ZM22.5 21C22.5 21.8284 21.8284 22.5 21 22.5V25.5C23.4853 25.5 25.5 23.4853 25.5 21H22.5ZM21 1.5C21.8284 1.5 22.5 2.17157 22.5 3H25.5C25.5 0.514719 23.4853 -1.5 21 -1.5V1.5ZM3 -1.5C0.514719 -1.5 -1.5 0.514719 -1.5 3H1.5C1.5 2.17157 2.17157 1.5 3 1.5V-1.5Z" fill="#E6E6E6"/>
</svg>
